<svg width="1600" height="900" viewBox="0 0 1600 900" fill="none" xmlns="http://www.w3.org/2000/svg">
<g clip-path="url(#clip0)">
<path d="M1600 0H0V900H1600V0Z" fill="url(#paint0_linear)"/>
<path d="M957 450L539 900H1396L957 450Z" fill="#D10060"/>
<path d="M957 450L872.9 900H1396L957 450Z" fill="#AF004A"/>
<path d="M-60 900L398 662L816 900H-60Z" fill="#D2006A"/>
<path d="M337 900L398 662L816 900H337Z" fill="#B00052"/>
<path d="M1203 546L1552 900H876L1203 546Z" fill="#D20073"/>
<path d="M1203 546L1552 900H1162L1203 546Z" fill="#B1005B"/>
<path d="M641 695L886 900H367L641 695Z" fill="#D2007E"/>
<path d="M587 900L641 695L886 900H587Z" fill="#B10064"/>
<path d="M1710 900L1401 632L1096 900H1710Z" fill="#D00088"/>
<path d="M1710 900L1401 632L1365 900H1710Z" fill="#B1006D"/>
<path d="M1210 900L971 687L725 900H1210Z" fill="#CE0093"/>
<path d="M943 900H1210L971 687L943 900Z" fill="#AF0077"/>
<circle cx="1053.5" cy="240.5" r="80.5" fill="url(#paint1_linear)"/>
<circle cx="1445" cy="419" r="107" fill="url(#paint2_linear)"/>
<circle cx="1338" cy="109" r="40" fill="url(#paint3_linear)"/>
<circle cx="609" cy="160" r="40" fill="url(#paint4_linear)"/>
<circle cx="560.5" cy="378.5" r="109.5" fill="url(#paint5_linear)"/>
<circle cx="228.5" cy="522.5" r="72.5" fill="url(#paint6_linear)"/>
<circle cx="176" cy="69" r="219" fill="url(#paint7_linear)"/>
</g>
<defs>
<linearGradient id="paint0_linear" x1="460" y1="-110.5" x2="1237" y2="962" gradientUnits="userSpaceOnUse">
<stop stop-color="#140731"/>
<stop offset="1" stop-color="#00010A"/>
</linearGradient>
<linearGradient id="paint1_linear" x1="1012.5" y1="184" x2="1113.5" y2="306.5" gradientUnits="userSpaceOnUse">
<stop stop-color="#CE0093"/>
<stop offset="1" stop-color="#2F0120"/>
</linearGradient>
<linearGradient id="paint2_linear" x1="1390.5" y1="343.901" x2="1476" y2="500.5" gradientUnits="userSpaceOnUse">
<stop stop-color="#D00088"/>
<stop offset="1" stop-color="#1E0014"/>
</linearGradient>
<linearGradient id="paint3_linear" x1="1317.63" y1="80.9255" x2="1352" y2="137" gradientUnits="userSpaceOnUse">
<stop stop-color="#D20073"/>
<stop offset="1" stop-color="#430025"/>
</linearGradient>
<linearGradient id="paint4_linear" x1="588.627" y1="131.925" x2="625.5" y2="182.5" gradientUnits="userSpaceOnUse">
<stop stop-color="#C8005C"/>
<stop offset="1" stop-color="#2B0012"/>
</linearGradient>
<linearGradient id="paint5_linear" x1="504.73" y1="301.646" x2="608" y2="452" gradientUnits="userSpaceOnUse">
<stop stop-color="#EF0E80"/>
<stop offset="1" stop-color="#2F0014"/>
</linearGradient>
<linearGradient id="paint6_linear" x1="191.575" y1="471.615" x2="257.5" y2="570.5" gradientUnits="userSpaceOnUse">
<stop stop-color="#D2006A"/>
<stop offset="1" stop-color="#390018"/>
</linearGradient>
<linearGradient id="paint7_linear" x1="135.5" y1="-12" x2="318" y2="217" gradientUnits="userSpaceOnUse">
<stop stop-color="#D10060"/>
<stop offset="1" stop-color="#340016"/>
</linearGradient>
<clipPath id="clip0">
<rect width="1600" height="900" fill="white"/>
</clipPath>
</defs>
</svg>
